<?xml version="1.0" encoding="utf-8"?>
<!-- Generator: Adobe Illustrator 19.1.0, SVG Export Plug-In . SVG Version: 6.00 Build 0)  -->
<svg version="1.1" id="Layer_1" xmlns="http://www.w3.org/2000/svg" xmlns:xlink="http://www.w3.org/1999/xlink" x="0px" y="0px"
	 viewBox="0 0 50 50" style="enable-background:new 0 0 50 50;" xml:space="preserve">
<style type="text/css">
	.st0{fill-rule:evenodd;clip-rule:evenodd;fill:#FFFFFF;}
</style>
<g>
	<path class="st0" d="M128.8,44.4c-0.1,0-0.2-0.1-0.4-0.1l-4.7-3.4c-0.3-0.2-0.3-0.6-0.1-0.9l1.4-2l-0.3-0.3c-2.5-2.5-4-5.9-4-9.7
		c0-0.4,0-0.8,0.1-1.2l0.1-0.8l-7.7,10.9l0.2,0.3c0.1,0.2,0.1,0.4,0.1,0.7c0,1-0.8,1.8-1.8,1.8c-1,0-1.8-0.8-1.8-1.8
		c0-1,0.8-1.8,1.8-1.8c0.1,0,0.2,0,0.4,0l0.1,0l9.2-13.1l-2-1.5c-0.3-0.2-0.3-0.6-0.1-0.9l3.4-4.7c0.2-0.3,0.6-0.3,0.9-0.1l1.5,1.1
		l0.5-1c1-2.3,0.4-4.3-0.9-5.5l-0.4-0.3l-1.3,1.8c-0.1,0.1-0.3,0.2-0.4,0.3c-0.2,0-0.3,0-0.5-0.1l-4.7-3.4c-0.3-0.2-0.3-0.6-0.1-0.9
		l3.4-4.7c0.2-0.3,0.6-0.3,0.9-0.1l4.7,3.4c0.3,0.2,0.3,0.6,0.1,0.9L125,9l0.3,0.2c1.4,1.2,2.3,3,2,5.1l-0.1,0.3l6.2-8.8l-0.2-0.4
		c-0.1-0.2-0.1-0.4-0.1-0.7c0-1,0.8-1.8,1.8-1.8c1,0,1.8,0.8,1.8,1.8c0,1-0.8,1.8-1.8,1.8l-0.3,0l-6.7,9.5l0.2-0.1
		c1.9-1,4.1-1.6,6.4-1.6c1.4,0,2.8,0.2,4.1,0.6l0,0l1.5-2.1c0.2-0.3,0.6-0.3,0.9-0.1l4.7,3.4c0.3,0.2,0.3,0.6,0.1,0.9l-1.3,1.7
		l0.5,0.5c2,2.4,3.1,5.4,3.1,8.7c0,7.6-6.1,13.7-13.7,13.7c-1,0-1.9-0.1-2.8-0.3l-0.3-0.1l-2,2.8c-0.1,0.1-0.3,0.2-0.4,0.3
		C128.8,44.4,128.8,44.4,128.8,44.4z M128.6,42.8l2.7-3.7l-3.7-2.7l-2.7,3.7L128.6,42.8z M134.4,40.4c6.8,0,12.4-5.6,12.4-12.4
		c0-3-1.1-5.7-2.8-7.9l-0.3-0.3l-1.4,1.9c-0.1,0.1-0.3,0.2-0.4,0.3c-0.2,0-0.3,0-0.5-0.1l-4.7-3.4c-0.3-0.2-0.3-0.6-0.1-0.9l1.1-1.5
		l-0.8-0.2c-0.8-0.2-1.6-0.3-2.5-0.3c-2.8,0-5.4,0.9-7.4,2.5l-0.2,0.1l1.5,1.1c0.3,0.2,0.3,0.6,0.1,0.9l-3.4,4.7
		c-0.1,0.1-0.3,0.2-0.4,0.3c-0.2,0-0.3,0-0.5-0.1l-1.4-1l-0.1,0.4c-0.4,1.2-0.6,2.4-0.6,3.7c0,3.4,1.4,6.5,3.6,8.8l0.2,0.1l1.2-1.7
		c0.2-0.3,0.6-0.3,0.9-0.1l4.7,3.4c0.3,0.2,0.3,0.6,0.1,0.9l-0.6,0.8l1,0.2C133.6,40.4,134,40.4,134.4,40.4z M111.8,38.7
		c0.4,0,0.8-0.4,0.8-0.8c0-0.4-0.4-0.8-0.8-0.8c-0.4,0-0.8,0.4-0.8,0.8C110.9,38.3,111.3,38.7,111.8,38.7z M124.3,23.6l2.7-3.7
		l-3.7-2.7l-2.7,3.7L124.3,23.6z M141.7,20.4l2.7-3.7l-3.7-2.7l-2.7,3.7L141.7,20.4z M122.3,10.6l2.7-3.7l-3.7-2.7l-2.7,3.7
		L122.3,10.6z M134.8,5.6c0.4,0,0.8-0.4,0.8-0.8c0-0.4-0.4-0.8-0.8-0.8c-0.4,0-0.8,0.4-0.8,0.8C134,5.2,134.4,5.6,134.8,5.6z"/>
</g>
<g>
	<path class="st0" d="M25.1,42.9c-0.5,0-1,0-1.5-0.1c-2-0.3-3.5-1.2-4.9-2.3c-0.5-0.4-0.2-1.2,0.5-1.1c4.1,0.3,6.6,0,8.3-0.6
		c0.4-0.1,0.8-0.3,1.2-0.5l0.3-0.1l-0.4,0.1c-3.4,0.4-6.7,0.3-10.1-0.8c-0.3-0.1-0.5-0.5-0.4-0.8c0.1-0.3,0.5-0.5,0.8-0.4
		c4.3,1.3,8.4,1.1,13,0.2c0.7-0.1,1.1,0.7,0.5,1.1c-1.2,0.9-2.4,1.8-4.4,2.4c-1.5,0.5-3.4,0.8-6,0.7h-0.6l0.1,0.1
		c0.7,0.3,1.5,0.6,2.3,0.7c1.7,0.3,3.8,0,6.5-1.1c0.3-0.1,0.7,0,0.8,0.4c0.1,0.3,0,0.7-0.4,0.8C28.5,42.5,26.7,42.9,25.1,42.9z"/>
	<path class="st0" d="M24.8,47.4c-1.6,0-3-1.2-3.4-3.2c-0.1-0.4,0.3-0.8,0.7-0.7c1.8,0.3,3.6,0.3,5.5,0c0.4-0.1,0.8,0.3,0.7,0.8
		C27.9,46.3,26.4,47.4,24.8,47.4z M24.8,46.1c0.7,0,1.4-0.4,1.9-1.2l0-0.1l-0.4,0c-1,0.1-2,0.1-3,0L23,44.8l0,0.1
		C23.4,45.8,24.2,46.1,24.8,46.1z"/>
	<path class="st0" d="M21.1,38c-0.2,0-0.3,0-0.5-0.1c-1-0.8-1.7-2-1.5-3.8c0.4-4-5.9-4.8-5.6-12.2c0.3-7.7,6.6-10.3,11.6-10.3
		c6.3,0,11.5,4.7,11.4,11.5c-0.1,5.8-6.1,8-5.6,11.1c0,0,0,0.1,0,0.1c0,1.4-0.5,2.8-2.1,3.6c-0.3,0.1-0.7,0-0.8-0.3
		c-0.1-0.3,0-0.7,0.3-0.8c1.1-0.5,1.4-1.3,1.4-2.5l0-0.6c0.1-3.6,5.5-5.7,5.6-10.6c0.1-5.9-4.6-10.2-10.2-10.2
		c-4.7,0-10.1,2.3-10.4,9.1c-0.2,6.9,6.1,7.5,5.6,12.3c-0.1,1.3,0.3,2.1,1,2.7c0.3,0.2,0.3,0.6,0.1,0.9C21.4,37.9,21.3,38,21.1,38z"
		/>
	<path class="st0" d="M22.4,22.7c-0.1,0-0.2,0-0.3-0.1l-2.7-1.9c-0.2-0.1-0.3-0.4-0.1-0.7c0.1-0.2,0.4-0.3,0.7-0.1l2.3,1.6l1.9-2.5
		c0.2-0.2,0.5-0.3,0.7,0l2.1,2.4l2.1-2c0.2-0.2,0.5-0.2,0.7,0c0.2,0.2,0.2,0.5,0,0.7l-2.5,2.3c-0.2,0.2-0.5,0.2-0.7,0l-2-2.3
		l-1.8,2.4C22.7,22.7,22.6,22.7,22.4,22.7z"/>
	<path class="st0" d="M25,29.5c-0.1,0-0.3,0-0.4-0.1l-5.9-6.3c-0.2-0.2-0.2-0.5,0-0.7c0.2-0.2,0.5-0.2,0.7,0l5.6,5.9l5.4-6.4
		c0.2-0.2,0.5-0.2,0.7-0.1c0.2,0.2,0.2,0.5,0.1,0.7l-5.8,6.8C25.2,29.4,25.1,29.5,25,29.5z"/>
	<path class="st0" d="M23.8,37.7c-0.3,0-0.6-0.3-0.6-0.6v-8.2c0-0.4,0.3-0.6,0.6-0.6H26c0.3,0,0.6,0.3,0.6,0.6V37
		c0,0.3-0.3,0.6-0.6,0.6H23.8z M25.4,36.4v-6.9h-0.9v6.9H25.4z"/>
	<path class="st0" d="M38.4,19.2c-0.2,0-0.5-0.2-0.6-0.4c-0.1-0.3,0.1-0.7,0.4-0.8l5.3-2c0.3-0.1,0.7,0.1,0.8,0.4
		c0.1,0.3-0.1,0.7-0.4,0.8l-5.3,2C38.6,19.2,38.5,19.2,38.4,19.2z"/>
	<path class="st0" d="M33.8,11.8c-0.1,0-0.2,0-0.4-0.1c-0.3-0.2-0.3-0.6-0.1-0.9l2.9-4.1c0.2-0.3,0.6-0.3,0.9-0.1
		c0.3,0.2,0.3,0.6,0.1,0.9l-2.9,4.1C34.2,11.7,34,11.8,33.8,11.8z"/>
	<path class="st0" d="M24.8,9.1c-0.4,0-0.6-0.3-0.6-0.6l0-5.2c0-0.3,0.3-0.6,0.6-0.6c0.3,0,0.6,0.3,0.6,0.6l0,5.2
		C25.5,8.8,25.2,9.1,24.8,9.1z"/>
	<path class="st0" d="M11.6,18.4c-0.1,0-0.2,0-0.2,0l-5.3-2c-0.3-0.1-0.5-0.5-0.4-0.8c0.1-0.3,0.5-0.5,0.8-0.4l5.3,2
		c0.3,0.1,0.5,0.5,0.4,0.8C12,18.2,11.8,18.4,11.6,18.4z"/>
	<path class="st0" d="M16.4,11.5c-0.2,0-0.4-0.1-0.5-0.3L13,7.2c-0.2-0.3-0.1-0.7,0.1-0.9c0.3-0.2,0.7-0.1,0.9,0.2l2.9,4.1
		c0.2,0.3,0.1,0.7-0.1,0.9C16.7,11.5,16.6,11.5,16.4,11.5z"/>
</g>
<g>
	<path class="st0" d="M68.3,48.2c-2.6,0-4.8-2.1-4.8-4.8V14.2c0-2.6,2.1-4.8,4.8-4.8h7.2l-0.4-0.7c-0.2-0.6-0.4-1.2-0.4-1.9
		c0-2.8,2.3-5,5-5c2.8,0,5,2.3,5,5c0,0.7-0.1,1.3-0.4,1.9l-0.3,0.7h7.1c2.6,0,4.8,2.1,4.8,4.8v29.2c0,2.6-2.1,4.8-4.8,4.8H68.3z
		 M91.3,46.9c1.9,0,3.5-1.6,3.5-3.5V14.2c0-1.9-1.6-3.5-3.5-3.5h-2.5v1.7h2.9c0.9,0,1.6,0.7,1.6,1.6v29.6c0,0.9-0.7,1.6-1.6,1.6
		H68.1c-0.9,0-1.6-0.7-1.6-1.6V14c0-0.9,0.7-1.6,1.6-1.6h2.6v-1.7h-2.3c-1.9,0-3.5,1.6-3.5,3.5v29.2c0,1.9,1.6,3.5,3.5,3.5H91.3z
		 M91.7,43.9c0.2,0,0.3-0.1,0.3-0.3V14c0-0.2-0.1-0.3-0.3-0.3h-2.9l0,0.2c-0.1,0.2-0.3,0.4-0.6,0.4H71.3c-0.3,0-0.5-0.2-0.6-0.4
		l0-0.2h-2.6c-0.2,0-0.3,0.1-0.3,0.3v29.6c0,0.2,0.1,0.3,0.3,0.3H91.7z M77.1,40.1c-0.3,0-0.6-0.3-0.6-0.6c0-0.4,0.3-0.6,0.6-0.6
		h11.2c0.3,0,0.6,0.3,0.6,0.6c0,0.3-0.3,0.6-0.6,0.6H77.1z M77.1,35.8c-0.3,0-0.6-0.3-0.6-0.6c0-0.3,0.3-0.6,0.6-0.6h11.2
		c0.3,0,0.6,0.3,0.6,0.6c0,0.3-0.3,0.6-0.6,0.6H77.1z M72.6,33.4c-0.2,0-0.3,0-0.5-0.2L70,31.4c-0.3-0.2-0.3-0.6-0.1-0.9
		c0.2-0.3,0.6-0.3,0.9-0.1l1.6,1.4l2-2.3c0.2-0.3,0.6-0.3,0.9-0.1c0.3,0.2,0.3,0.6,0.1,0.9L73,33.2C72.9,33.3,72.7,33.4,72.6,33.4z
		 M77.1,31.5c-0.3,0-0.6-0.3-0.6-0.6c0-0.3,0.3-0.6,0.6-0.6h11.2c0.3,0,0.6,0.3,0.6,0.6c0,0.4-0.3,0.6-0.6,0.6H77.1z M72.5,29
		c-0.2,0-0.3,0-0.5-0.2L70,27c-0.3-0.2-0.3-0.6-0.1-0.9c0.2-0.3,0.6-0.3,0.9-0.1l1.6,1.4l2-2.3c0.2-0.3,0.6-0.3,0.9-0.1
		c0.3,0.2,0.3,0.6,0.1,0.9L73,28.8C72.9,28.9,72.7,29,72.5,29z M77.1,27.2c-0.3,0-0.6-0.3-0.6-0.6c0-0.4,0.3-0.6,0.6-0.6h11.2
		c0.3,0,0.6,0.3,0.6,0.6c0,0.3-0.3,0.6-0.6,0.6H77.1z M72.5,24.3c-0.2,0-0.3,0-0.5-0.2L70,22.3c-0.3-0.2-0.3-0.6-0.1-0.9
		c0.2-0.3,0.6-0.3,0.9-0.1l1.6,1.4l2-2.3c0.2-0.3,0.6-0.3,0.9-0.1c0.3,0.2,0.3,0.6,0.1,0.9L73,24.1C72.9,24.2,72.7,24.3,72.5,24.3z
		 M77.1,22.9c-0.3,0-0.6-0.3-0.6-0.6c0-0.3,0.3-0.6,0.6-0.6h11.2c0.3,0,0.6,0.3,0.6,0.6c0,0.4-0.3,0.6-0.6,0.6H77.1z M72.6,20.2
		c-0.2,0-0.3,0-0.5-0.2L70,18.2c-0.3-0.2-0.3-0.6-0.1-0.9c0.2-0.3,0.6-0.3,0.9-0.1l1.6,1.4l2-2.3c0.2-0.3,0.6-0.3,0.9-0.1
		c0.3,0.2,0.3,0.6,0.1,0.9L73,20C72.9,20.1,72.7,20.2,72.6,20.2z M77.1,18.6c-0.3,0-0.6-0.3-0.6-0.6c0-0.3,0.3-0.6,0.6-0.6h11.2
		c0.3,0,0.6,0.3,0.6,0.6c0,0.4-0.3,0.6-0.6,0.6H77.1z M87.5,13v-2.2H71.9V13H87.5z M82.6,9.5L83,9c0.4-0.6,0.6-1.3,0.6-2.1
		c0-2.1-1.7-3.8-3.8-3.8c-2.1,0-3.8,1.7-3.8,3.8c0,1,0.4,1.9,1,2.6l0,0H82.6z M79.9,9c-1.2,0-2.1-1-2.1-2.1c0-1.2,1-2.1,2.1-2.1
		c1.2,0,2.1,1,2.1,2.1C82,8.1,81.1,9,79.9,9z M79.9,7.7c0.5,0,0.8-0.4,0.8-0.8c0-0.5-0.4-0.8-0.8-0.8C79.4,6,79,6.4,79,6.9
		C79,7.4,79.4,7.7,79.9,7.7z"/>
</g>
<g>
	<path class="st0" d="M172.2,42.4c-2.6,0-4.8-2.1-4.8-4.8v-1.5h-9.1c-1.4,0-2.6-1.2-2.6-2.6v-23c0-1.4,1.1-2.6,2.6-2.6h9.5l0-0.1
		c0.7-1.7,2.4-2.9,4.4-2.9h15.9c2,0,3.7,1.2,4.4,2.9l0,0.1h9.7c1.4,0,2.6,1.2,2.6,2.6v23c0,1.4-1.2,2.6-2.6,2.6h-9.3v1.5
		c0,2.6-2.1,4.8-4.8,4.8H172.2z M188.2,41.1c1.9,0,3.5-1.6,3.5-3.5V9.7c0-1.9-1.6-3.5-3.5-3.5h-15.9c-1.4,0-2.7,0.9-3.2,2.1l0,0
		l0,0.2c0,0.2-0.1,0.3-0.2,0.4l-0.1,0l-0.1,0.7v27.9c0,1.9,1.6,3.5,3.5,3.5H188.2z M180,40.2c-0.9,0-1.7-0.8-1.7-1.7
		c0-0.9,0.8-1.7,1.7-1.7c0.9,0,1.7,0.8,1.7,1.7C181.7,39.4,181,40.2,180,40.2z M180,39.2c0.4,0,0.7-0.3,0.7-0.7
		c0-0.4-0.3-0.7-0.7-0.7c-0.4,0-0.7,0.3-0.7,0.7C179.3,38.9,179.6,39.2,180,39.2z M172.5,36.1c-1.4,0-2.6-1.2-2.6-2.6v-23
		c0-1.4,1.2-2.6,2.6-2.6h15.2c1.4,0,2.6,1.2,2.6,2.6v23c0,1.4-1.2,2.6-2.6,2.6H172.5z M167.5,34.8v-3.4H159c-0.3,0-0.5-0.2-0.5-0.5
		c0-0.3,0.2-0.5,0.5-0.5h8.5v-1.6H159c-0.3,0-0.5-0.2-0.5-0.5c0-0.3,0.2-0.5,0.5-0.5h8.5v-2.5h-8.4c-0.3,0-0.5-0.2-0.5-0.5v-5.4
		c0-0.3,0.2-0.5,0.5-0.5h8.4v-1.8h-8.4c-0.3,0-0.5-0.2-0.5-0.5v-5.4c0-0.3,0.2-0.5,0.5-0.5h8.4V9.7l0.1-0.5h-9.2
		c-0.7,0-1.3,0.6-1.3,1.3v23c0,0.7,0.6,1.3,1.3,1.3H167.5z M187.7,34.8c0.7,0,1.3-0.6,1.3-1.3v-23c0-0.7-0.6-1.3-1.3-1.3h-15.2
		c-0.7,0-1.3,0.6-1.3,1.3v23c0,0.7,0.6,1.3,1.3,1.3H187.7z M200.4,34.8v-7.6h-7.5v7.6H200.4z M202.2,34.8c0.7,0,1.3-0.6,1.3-1.3v-23
		c0-0.7-0.6-1.3-1.3-1.3h-9.4l0.1,0.5v1.8h8c0.3,0,0.5,0.2,0.5,0.5v5.4c0,0.3-0.2,0.5-0.5,0.5h-8v2.4h8.1c0.3,0,0.5,0.2,0.5,0.5
		c0,0.3-0.2,0.5-0.5,0.5h-8.1v1.6h8.1c0.3,0,0.5,0.2,0.5,0.5c0,0.3-0.2,0.5-0.5,0.5h-8.1v2.6h8c0.3,0,0.5,0.2,0.5,0.5v8.1H202.2z
		 M176.1,32.6c-0.5,0-0.9-0.4-0.9-0.9v-2.2c0-0.5,0.4-0.9,0.9-0.9h8.4c0.5,0,0.9,0.4,0.9,0.9v2.2c0,0.5-0.4,0.9-0.9,0.9H176.1z
		 M184.5,31.6v-2.1h-8.3v2.1H184.5z M175.5,25.6c-0.3,0-0.5-0.2-0.5-0.5c0-0.3,0.2-0.5,0.5-0.5h8.9c0.3,0,0.5,0.2,0.5,0.5
		c0,0.3-0.2,0.5-0.5,0.5H175.5z M167.5,24.5v-4.5h-7.9v4.5H167.5z M175.5,23.1c-0.3,0-0.5-0.2-0.5-0.5c0-0.3,0.2-0.5,0.5-0.5h8.9
		c0.3,0,0.5,0.2,0.5,0.5c0,0.3-0.2,0.5-0.5,0.5H175.5z M180,20.5c-2.7,0-5-2.2-5-5c0-2.7,2.2-5,5-5c2.7,0,5,2.2,5,5
		C185,18.3,182.7,20.5,180,20.5z M180,19.6c0.7,0,1.3-0.2,1.9-0.5l0.3-0.2l-0.2-0.3c-0.3-0.5-0.8-0.9-1.5-1.3l0,0h0
		c-0.2,0-0.3,0.1-0.5,0.1c-0.2,0-0.3,0-0.5-0.1l-0.1,0l-0.2,0.1c-0.5,0.3-0.9,0.7-1.2,1.2l-0.2,0.3C178.4,19.3,179.2,19.6,180,19.6z
		 M182.9,18.3l0.2-0.2c0.6-0.7,0.9-1.6,0.9-2.5c0-2.2-1.8-4-4-4c-2.2,0-4,1.8-4,4c0,1,0.3,1.8,0.9,2.5l0.1,0.1l0.1-0.1
		c0.3-0.5,0.7-0.9,1.2-1.3l0.1-0.1l-0.1-0.1c-0.4-0.4-0.7-1-0.7-1.7c0-1.3,1.1-2.4,2.4-2.4c1.3,0,2.4,1.1,2.4,2.4
		c0,0.7-0.3,1.4-0.9,1.8v0l0.2,0.1C182.2,17.3,182.6,17.8,182.9,18.3L182.9,18.3z M200.4,16.9v-4.5h-7.5v4.5H200.4z M180,16.4
		c0.8,0,1.5-0.6,1.5-1.4c0-0.8-0.7-1.5-1.5-1.5c-0.8,0-1.5,0.7-1.5,1.5C178.5,15.8,179.2,16.4,180,16.4z M167.5,16.4v-4.5h-7.9v4.5
		H167.5z"/>
</g>
</svg>
