<?xml version="1.0" encoding="utf-8"?>
<!-- Generator: Adobe Illustrator 19.1.0, SVG Export Plug-In . SVG Version: 6.00 Build 0)  -->
<svg version="1.1" id="Layer_1" xmlns="http://www.w3.org/2000/svg" xmlns:xlink="http://www.w3.org/1999/xlink" x="0px" y="0px"
	 viewBox="0 0 50 50" style="enable-background:new 0 0 50 50;" xml:space="preserve">
<style type="text/css">
	.st0{fill-rule:evenodd;clip-rule:evenodd;fill:#FFFFFF;}
</style>
<g>
	<path class="st0" d="M-20.4,39.6c-0.1,0-0.2,0-0.3-0.1l-4-3c-0.2-0.2-0.3-0.5-0.1-0.8l1.2-1.7l-0.3-0.2c-2.1-2.1-3.4-5.1-3.4-8.3
		c0-0.3,0-0.7,0-1l0.1-0.7l-6.6,9.4l0.2,0.2c0.1,0.2,0.1,0.4,0.1,0.6c0,0.8-0.7,1.5-1.5,1.5c-0.8,0-1.5-0.7-1.5-1.5
		c0-0.8,0.7-1.5,1.5-1.5c0.1,0,0.2,0,0.3,0l0,0l7.9-11.3l-1.7-1.3c-0.2-0.2-0.3-0.5-0.1-0.8l3-4c0.2-0.2,0.5-0.3,0.8-0.1l1.3,0.9
		l0.5-0.9c0.9-2,0.4-3.7-0.8-4.8l-0.3-0.3l-1.1,1.5c-0.1,0.1-0.2,0.2-0.4,0.2c-0.1,0-0.3,0-0.4-0.1l-4-2.9c-0.2-0.2-0.3-0.5-0.1-0.8
		l3-4c0.2-0.2,0.5-0.3,0.8-0.1l4,3c0.2,0.2,0.3,0.5,0.1,0.8l-1.2,1.6l0.2,0.2c1.2,1,2,2.6,1.7,4.4l0,0.2l5.3-7.5l-0.2-0.3
		c-0.1-0.2-0.1-0.4-0.1-0.6c0-0.8,0.7-1.5,1.5-1.5c0.8,0,1.5,0.7,1.5,1.5c0,0.8-0.7,1.5-1.5,1.5l-0.3,0l-5.8,8.2l0.2-0.1
		c1.6-0.9,3.5-1.4,5.5-1.4c1.2,0,2.4,0.2,3.5,0.5l0,0l1.3-1.8c0.2-0.2,0.5-0.3,0.8-0.1l4,3c0.2,0.2,0.3,0.5,0.1,0.8l-1.1,1.5
		l0.4,0.5c1.7,2,2.7,4.6,2.7,7.5c0,6.5-5.3,11.8-11.8,11.8c-0.8,0-1.6-0.1-2.4-0.2l-0.3-0.1l-1.7,2.4c-0.1,0.1-0.2,0.2-0.4,0.2
		C-20.3,39.6-20.3,39.6-20.4,39.6z M-20.5,38.3l2.3-3.1l-3.1-2.3l-2.3,3.1L-20.5,38.3z M-15.5,36.2c5.9,0,10.7-4.8,10.7-10.7
		c0-2.6-0.9-4.9-2.4-6.8l-0.2-0.2l-1.2,1.6c-0.1,0.1-0.2,0.2-0.4,0.2c-0.1,0-0.3,0-0.4-0.1l-4-2.9c-0.2-0.2-0.3-0.5-0.1-0.8l0.9-1.3
		l-0.7-0.2c-0.7-0.1-1.4-0.2-2.1-0.2c-2.4,0-4.6,0.8-6.4,2.1l-0.2,0.1l1.3,0.9c0.2,0.2,0.3,0.5,0.1,0.8l-3,4
		c-0.1,0.1-0.2,0.2-0.4,0.2c-0.1,0-0.3,0-0.4-0.1l-1.2-0.9l-0.1,0.3c-0.3,1-0.5,2.1-0.5,3.2c0,2.9,1.2,5.6,3.1,7.5l0.1,0.1l1.1-1.5
		c0.2-0.2,0.5-0.3,0.8-0.1l4,3c0.2,0.2,0.3,0.5,0.1,0.8l-0.5,0.7l0.8,0.1C-16.3,36.2-15.9,36.2-15.5,36.2z M-35,34.7
		c0.4,0,0.7-0.3,0.7-0.7c0-0.4-0.3-0.7-0.7-0.7c-0.4,0-0.7,0.3-0.7,0.7C-35.7,34.4-35.4,34.7-35,34.7z M-24.2,21.8l2.3-3.1l-3.1-2.3
		l-2.3,3.1L-24.2,21.8z M-9.3,19.1l2.3-3.1l-3.1-2.3l-2.3,3.1L-9.3,19.1z M-26,10.6l2.3-3.1l-3.1-2.3l-2.3,3.1L-26,10.6z M-15.2,6.3
		c0.4,0,0.7-0.3,0.7-0.7c0-0.4-0.3-0.7-0.7-0.7c-0.4,0-0.7,0.3-0.7,0.7C-15.9,6-15.6,6.3-15.2,6.3z"/>
</g>
<g>
	<path class="st0" d="M-108.6,37.1c-0.5,0-0.9,0-1.3-0.1c-1.7-0.3-3-1-4.2-2c-0.4-0.3-0.1-1,0.4-1c3.5,0.2,5.7,0,7.2-0.5
		c0.4-0.1,0.7-0.2,1-0.4l0.2-0.1l-0.4,0c-2.9,0.3-5.8,0.2-8.7-0.7c-0.3-0.1-0.5-0.4-0.4-0.7c0.1-0.3,0.4-0.5,0.7-0.4
		c3.7,1.1,7.2,1,11.1,0.2c0.6-0.1,0.9,0.6,0.4,1c-1,0.7-2,1.6-3.7,2.1c-1.3,0.4-2.9,0.6-5.1,0.6h-0.5l0.1,0.1c0.6,0.3,1.2,0.5,2,0.6
		c1.4,0.2,3.2,0,5.5-0.9c0.3-0.1,0.6,0,0.7,0.3c0.1,0.3,0,0.6-0.3,0.7C-105.6,36.8-107.2,37.1-108.6,37.1z"/>
	<path class="st0" d="M-108.8,41c-1.4,0-2.6-1-2.9-2.8c-0.1-0.4,0.3-0.7,0.6-0.6c1.6,0.3,3.1,0.3,4.7,0c0.4-0.1,0.7,0.3,0.6,0.7
		C-106.1,40-107.4,41-108.8,41z M-108.8,39.9c0.6,0,1.2-0.3,1.7-1l0-0.1l-0.3,0c-0.8,0.1-1.7,0.1-2.6,0l-0.4,0l0,0.1
		C-109.9,39.6-109.3,39.9-108.8,39.9z"/>
	<path class="st0" d="M-112,32.9c-0.1,0-0.3,0-0.4-0.1c-0.9-0.7-1.4-1.7-1.3-3.2c0.3-3.4-5.1-4.2-4.8-10.5c0.2-6.6,5.6-8.8,10-8.8
		c5.4,0,9.9,4.1,9.8,9.8c-0.1,5-5.2,6.8-4.8,9.6c0,0,0,0.1,0,0.1c0,1.2-0.4,2.4-1.8,3.1c-0.3,0.1-0.6,0-0.7-0.3
		c-0.1-0.3,0-0.6,0.3-0.7c0.9-0.4,1.2-1.1,1.2-2.1l0-0.5c0.1-3.1,4.8-4.9,4.8-9.1c0.1-5.1-3.9-8.7-8.7-8.7c-4.1,0-8.7,2-8.9,7.8
		c-0.2,5.9,5.2,6.4,4.8,10.6c-0.1,1.1,0.3,1.8,0.9,2.3c0.2,0.2,0.3,0.5,0.1,0.8C-111.7,32.8-111.8,32.9-112,32.9z"/>
	<path class="st0" d="M-110.8,19.8c-0.1,0-0.2,0-0.2-0.1l-2.3-1.6c-0.2-0.1-0.2-0.4-0.1-0.6c0.1-0.2,0.4-0.2,0.6-0.1l2,1.4l1.6-2.1
		c0.2-0.2,0.5-0.2,0.6,0l1.8,2l1.8-1.7c0.2-0.2,0.4-0.1,0.6,0c0.2,0.2,0.1,0.4,0,0.6l-2.1,2c-0.2,0.2-0.4,0.1-0.6,0l-1.7-2l-1.5,2
		C-110.6,19.7-110.7,19.8-110.8,19.8z"/>
	<path class="st0" d="M-108.6,25.6c-0.1,0-0.2,0-0.3-0.1l-5.1-5.4c-0.2-0.2-0.2-0.4,0-0.6c0.2-0.2,0.4-0.2,0.6,0l4.8,5l4.6-5.5
		c0.1-0.2,0.4-0.2,0.6-0.1c0.2,0.1,0.2,0.4,0.1,0.6l-4.9,5.9C-108.4,25.6-108.5,25.6-108.6,25.6z"/>
	<path class="st0" d="M-109.6,32.6c-0.3,0-0.5-0.2-0.5-0.5v-7c0-0.3,0.2-0.5,0.5-0.5h1.9c0.3,0,0.5,0.2,0.5,0.5v7
		c0,0.3-0.2,0.5-0.5,0.5H-109.6z M-108.3,31.6v-5.9h-0.8v5.9H-108.3z"/>
	<path class="st0" d="M-97.1,16.8c-0.2,0-0.4-0.1-0.5-0.4c-0.1-0.3,0-0.6,0.3-0.7l4.6-1.7c0.3-0.1,0.6,0,0.7,0.3
		c0.1,0.3,0,0.6-0.3,0.7l-4.6,1.7C-96.9,16.8-97,16.8-97.1,16.8z"/>
	<path class="st0" d="M-101,10.4c-0.1,0-0.2,0-0.3-0.1c-0.2-0.2-0.3-0.5-0.1-0.8l2.5-3.5c0.2-0.2,0.5-0.3,0.8-0.1
		c0.2,0.2,0.3,0.5,0.1,0.8l-2.5,3.5C-100.7,10.3-100.8,10.4-101,10.4z"/>
	<path class="st0" d="M-108.7,8c-0.3,0-0.5-0.2-0.5-0.5l0-4.5c0-0.3,0.2-0.5,0.6-0.5c0.3,0,0.5,0.2,0.5,0.6l0,4.4
		C-108.2,7.8-108.4,8-108.7,8z"/>
	<path class="st0" d="M-120.2,16.1c-0.1,0-0.1,0-0.2,0l-4.6-1.7c-0.3-0.1-0.4-0.4-0.3-0.7c0.1-0.3,0.4-0.4,0.7-0.3l4.6,1.7
		c0.3,0.1,0.4,0.4,0.3,0.7C-119.7,15.9-119.9,16.1-120.2,16.1z"/>
	<path class="st0" d="M-116,10.1c-0.2,0-0.3-0.1-0.5-0.2l-2.5-3.5c-0.2-0.2-0.1-0.6,0.1-0.8c0.2-0.2,0.6-0.1,0.8,0.1l2.5,3.5
		c0.2,0.2,0.1,0.6-0.1,0.8C-115.8,10.1-115.9,10.1-116,10.1z"/>
</g>
<g>
	<path class="st0" d="M-71.4,41.6c-2.3,0-4.1-1.8-4.1-4.1V12.5c0-2.3,1.8-4.1,4.1-4.1h6.2l-0.3-0.6c-0.2-0.5-0.3-1.1-0.3-1.6
		c0-2.4,1.9-4.3,4.3-4.3c2.4,0,4.3,1.9,4.3,4.3c0,0.6-0.1,1.2-0.3,1.7l-0.3,0.6h6.1c2.3,0,4.1,1.8,4.1,4.1v25.1
		c0,2.3-1.8,4.1-4.1,4.1H-71.4z M-51.7,40.6c1.7,0,3-1.3,3-3V12.5c0-1.6-1.3-3-3-3h-2.1V11h2.5c0.7,0,1.3,0.6,1.3,1.3v25.4
		c0,0.7-0.6,1.3-1.3,1.3h-20.3c-0.7,0-1.3-0.6-1.3-1.3V12.3c0-0.7,0.6-1.3,1.3-1.3h2.2V9.5h-2c-1.6,0-3,1.3-3,3v25.1
		c0,1.7,1.3,3,3,3H-51.7z M-51.3,38c0.1,0,0.2-0.1,0.2-0.2V12.3c0-0.1-0.1-0.3-0.2-0.3h-2.5l0,0.1c-0.1,0.2-0.3,0.3-0.5,0.3h-14.5
		c-0.2,0-0.4-0.1-0.5-0.3l0-0.1h-2.3c-0.1,0-0.2,0.1-0.2,0.3v25.4c0,0.1,0.1,0.2,0.2,0.2H-51.3z M-63.8,34.8c-0.3,0-0.5-0.2-0.5-0.5
		c0-0.3,0.2-0.5,0.5-0.5h9.6c0.3,0,0.5,0.2,0.5,0.5c0,0.3-0.2,0.5-0.5,0.5H-63.8z M-63.8,31.1c-0.3,0-0.5-0.2-0.5-0.5
		c0-0.3,0.2-0.5,0.5-0.5h9.6c0.3,0,0.5,0.2,0.5,0.5c0,0.3-0.2,0.5-0.5,0.5H-63.8z M-67.7,29c-0.1,0-0.3,0-0.4-0.1l-1.8-1.6
		c-0.2-0.2-0.2-0.5-0.1-0.8c0.2-0.2,0.5-0.2,0.8-0.1l1.4,1.2l1.7-2c0.2-0.2,0.5-0.3,0.8-0.1c0.2,0.2,0.3,0.5,0.1,0.8l-2.1,2.4
		C-67.5,28.9-67.6,29-67.7,29z M-63.8,27.4c-0.3,0-0.5-0.2-0.5-0.5c0-0.3,0.2-0.5,0.5-0.5h9.6c0.3,0,0.5,0.2,0.5,0.5
		c0,0.3-0.2,0.5-0.5,0.5H-63.8z M-67.7,25.2c-0.1,0-0.3,0-0.4-0.1l-1.8-1.6c-0.2-0.2-0.2-0.5-0.1-0.8c0.2-0.2,0.5-0.2,0.8-0.1
		l1.4,1.2l1.7-2c0.2-0.2,0.5-0.3,0.8-0.1c0.2,0.2,0.3,0.5,0.1,0.8l-2.1,2.4C-67.5,25.1-67.6,25.2-67.7,25.2z M-63.8,23.7
		c-0.3,0-0.5-0.2-0.5-0.5c0-0.3,0.2-0.5,0.5-0.5h9.6c0.3,0,0.5,0.2,0.5,0.5c0,0.3-0.2,0.5-0.5,0.5H-63.8z M-67.7,21.1
		c-0.1,0-0.3,0-0.4-0.1l-1.8-1.6c-0.2-0.2-0.2-0.5-0.1-0.8c0.2-0.2,0.5-0.3,0.8-0.1l1.4,1.2l1.7-2c0.2-0.2,0.5-0.3,0.8-0.1
		c0.2,0.2,0.3,0.5,0.1,0.8l-2.1,2.4C-67.5,21.1-67.6,21.1-67.7,21.1z M-63.8,20c-0.3,0-0.5-0.2-0.5-0.5c0-0.3,0.2-0.5,0.5-0.5h9.6
		c0.3,0,0.5,0.2,0.5,0.5c0,0.3-0.2,0.5-0.5,0.5H-63.8z M-67.7,17.6c-0.1,0-0.3,0-0.4-0.1l-1.8-1.6c-0.2-0.2-0.2-0.5-0.1-0.8
		c0.2-0.2,0.5-0.3,0.8-0.1l1.4,1.2l1.7-2c0.2-0.2,0.5-0.3,0.8-0.1c0.2,0.2,0.3,0.5,0.1,0.8l-2.1,2.4C-67.5,17.5-67.6,17.6-67.7,17.6
		z M-63.8,16.2c-0.3,0-0.5-0.2-0.5-0.5c0-0.3,0.2-0.5,0.5-0.5h9.6c0.3,0,0.5,0.2,0.5,0.5c0,0.3-0.2,0.5-0.5,0.5H-63.8z M-54.9,11.4
		V9.5h-13.4v1.9H-54.9z M-59.1,8.4l0.4-0.4c0.3-0.5,0.5-1.1,0.5-1.8c0-1.8-1.5-3.2-3.2-3.2c-1.8,0-3.2,1.5-3.2,3.2
		c0,0.9,0.3,1.6,0.9,2.2l0,0H-59.1z M-61.4,8c-1,0-1.8-0.8-1.8-1.8c0-1,0.8-1.8,1.8-1.8c1,0,1.8,0.8,1.8,1.8
		C-59.6,7.2-60.4,8-61.4,8z M-61.4,6.9c0.4,0,0.7-0.3,0.7-0.7c0-0.4-0.3-0.7-0.7-0.7c-0.4,0-0.7,0.3-0.7,0.7
		C-62.2,6.6-61.8,6.9-61.4,6.9z"/>
</g>
<g>
	<path class="st0" d="M18.1,41.1c-2.3,0-4.1-1.8-4.1-4.1v-1.3H6.1c-1.2,0-2.2-1-2.2-2.2V13.7c0-1.2,1-2.2,2.2-2.2h8.1l0,0
		c0.6-1.5,2.1-2.5,3.8-2.5h13.7c1.7,0,3.1,1,3.8,2.5l0,0h8.3c1.2,0,2.2,1,2.2,2.2v19.8c0,1.2-1,2.2-2.2,2.2h-8V37
		c0,2.3-1.8,4.1-4.1,4.1H18.1z M31.8,40c1.7,0,3-1.3,3-3V13c0-1.6-1.3-3-3-3H18.1c-1.2,0-2.3,0.8-2.8,1.8l0,0l0,0.2
		c0,0.2-0.1,0.3-0.2,0.4l0,0L15.1,13v24c0,1.7,1.3,3,3,3H31.8z M24.8,39.2c-0.8,0-1.5-0.6-1.5-1.5c0-0.8,0.6-1.4,1.5-1.4
		c0.8,0,1.4,0.6,1.4,1.4C26.2,38.6,25.6,39.2,24.8,39.2z M24.8,38.4c0.3,0,0.6-0.3,0.6-0.6c0-0.3-0.3-0.6-0.6-0.6
		c-0.3,0-0.6,0.3-0.6,0.6C24.1,38.1,24.4,38.4,24.8,38.4z M18.3,35.7c-1.2,0-2.2-1-2.2-2.2V13.7c0-1.2,1-2.2,2.2-2.2h13.1
		c1.2,0,2.2,1,2.2,2.2v19.8c0,1.2-1,2.2-2.2,2.2H18.3z M14,34.6v-2.9H6.7c-0.2,0-0.4-0.2-0.4-0.4c0-0.2,0.2-0.4,0.4-0.4H14v-1.3H6.7
		c-0.2,0-0.4-0.2-0.4-0.4c0-0.2,0.2-0.4,0.4-0.4H14v-2.1H6.8c-0.2,0-0.4-0.2-0.4-0.4v-4.6c0-0.2,0.2-0.4,0.4-0.4H14v-1.5H6.8
		c-0.2,0-0.4-0.2-0.4-0.4v-4.6c0-0.2,0.2-0.4,0.4-0.4H14V13l0-0.5H6.1c-0.6,0-1.1,0.5-1.1,1.1v19.8c0,0.6,0.5,1.1,1.1,1.1H14z
		 M31.4,34.6c0.6,0,1.1-0.5,1.1-1.1V13.7c0-0.6-0.5-1.1-1.1-1.1H18.3c-0.6,0-1.1,0.5-1.1,1.1v19.8c0,0.6,0.5,1.1,1.1,1.1H31.4z
		 M42.3,34.6V28h-6.4v6.5H42.3z M43.9,34.6c0.6,0,1.1-0.5,1.1-1.1V13.7c0-0.6-0.5-1.1-1.1-1.1h-8.1l0.1,0.5v1.5h6.8
		c0.2,0,0.4,0.2,0.4,0.4v4.6c0,0.2-0.2,0.4-0.4,0.4h-6.8v2h7c0.2,0,0.4,0.2,0.4,0.4c0,0.2-0.2,0.4-0.4,0.4h-7v1.3h7
		c0.2,0,0.4,0.2,0.4,0.4c0,0.2-0.2,0.4-0.4,0.4h-7v2.2h6.8c0.2,0,0.4,0.2,0.4,0.4v6.9H43.9z M21.4,32.7c-0.4,0-0.8-0.4-0.8-0.8V30
		c0-0.4,0.3-0.8,0.8-0.8h7.2c0.4,0,0.8,0.3,0.8,0.8v1.9c0,0.4-0.3,0.8-0.8,0.8H21.4z M28.6,31.8V30h-7.2v1.8H28.6z M20.8,26.7
		c-0.2,0-0.4-0.2-0.4-0.4c0-0.2,0.2-0.4,0.4-0.4h7.6c0.2,0,0.4,0.2,0.4,0.4c0,0.2-0.2,0.4-0.4,0.4H20.8z M14,25.8v-3.8H7.2v3.8H14z
		 M20.8,24.5c-0.2,0-0.4-0.2-0.4-0.4c0-0.2,0.2-0.4,0.4-0.4h7.6c0.2,0,0.4,0.2,0.4,0.4c0,0.2-0.2,0.4-0.4,0.4H20.8z M24.7,22.3
		c-2.4,0-4.3-1.9-4.3-4.3c0-2.4,1.9-4.3,4.3-4.3c2.3,0,4.3,1.9,4.3,4.3C29,20.4,27.1,22.3,24.7,22.3z M24.7,21.5
		c0.6,0,1.2-0.2,1.6-0.4l0.2-0.1l-0.1-0.3c-0.3-0.4-0.7-0.8-1.3-1.1l0,0h0c-0.1,0-0.3,0-0.4,0s-0.3,0-0.4,0l-0.1,0L24,19.6
		c-0.5,0.3-0.8,0.6-1.1,1l-0.1,0.3C23.4,21.3,24,21.5,24.7,21.5z M27.3,20.4l0.1-0.1c0.5-0.6,0.8-1.4,0.8-2.2c0-1.9-1.5-3.4-3.4-3.4
		c-1.9,0-3.4,1.5-3.4,3.4c0,0.8,0.3,1.6,0.8,2.2l0.1,0.1l0.1-0.1c0.3-0.4,0.6-0.8,1-1.1l0.1,0L23.2,19c-0.4-0.4-0.6-0.9-0.6-1.5
		c0-1.1,0.9-2.1,2.1-2.1c1.1,0,2.1,0.9,2.1,2.1c0,0.6-0.3,1.2-0.8,1.6v0l0.2,0.1C26.6,19.6,27,19.9,27.3,20.4L27.3,20.4z M42.3,19.2
		v-3.8h-6.4v3.8H42.3z M24.7,18.8c0.7,0,1.2-0.6,1.2-1.2c0-0.7-0.6-1.2-1.2-1.2c-0.7,0-1.2,0.6-1.2,1.2C23.5,18.2,24,18.8,24.7,18.8
		z M14,18.8v-3.8H7.2v3.8H14z"/>
</g>
</svg>
