<?xml version="1.0" encoding="utf-8"?>
<!-- Generator: Adobe Illustrator 19.1.0, SVG Export Plug-In . SVG Version: 6.00 Build 0)  -->
<svg version="1.1" id="Layer_1" xmlns="http://www.w3.org/2000/svg" xmlns:xlink="http://www.w3.org/1999/xlink" x="0px" y="0px"
	 viewBox="0 0 50 50" style="enable-background:new 0 0 50 50;" xml:space="preserve">
<style type="text/css">
	.st0{fill-rule:evenodd;clip-rule:evenodd;fill:#FFFFFF;}
</style>
<g>
	<path class="st0" d="M24.8,42.9c-0.1,0-0.2,0-0.3-0.1l-4-3c-0.2-0.2-0.3-0.5-0.1-0.8l1.2-1.7l-0.3-0.2c-2.1-2.1-3.4-5.1-3.4-8.3
		c0-0.3,0-0.7,0-1l0.1-0.7l-6.6,9.4l0.2,0.2c0.1,0.2,0.1,0.4,0.1,0.6c0,0.8-0.7,1.5-1.5,1.5c-0.8,0-1.5-0.7-1.5-1.5
		c0-0.8,0.7-1.5,1.5-1.5c0.1,0,0.2,0,0.3,0l0,0l7.9-11.3l-1.7-1.3c-0.2-0.2-0.3-0.5-0.1-0.8l3-4c0.2-0.2,0.5-0.3,0.8-0.1l1.3,0.9
		l0.5-0.9c0.9-2,0.4-3.7-0.8-4.8l-0.3-0.3l-1.1,1.5c-0.1,0.1-0.2,0.2-0.4,0.2c-0.1,0-0.3,0-0.4-0.1l-4-2.9c-0.2-0.2-0.3-0.5-0.1-0.8
		l3-4C18,7.1,18.3,7,18.6,7.2l4,3c0.2,0.2,0.3,0.5,0.1,0.8l-1.2,1.6l0.2,0.2c1.2,1,2,2.6,1.7,4.4l0,0.2l5.3-7.5l-0.2-0.3
		c-0.1-0.2-0.1-0.4-0.1-0.6c0-0.8,0.7-1.5,1.5-1.5c0.8,0,1.5,0.7,1.5,1.5c0,0.8-0.7,1.5-1.5,1.5l-0.3,0l-5.8,8.2l0.2-0.1
		c1.6-0.9,3.5-1.4,5.5-1.4c1.2,0,2.4,0.2,3.5,0.5l0,0l1.3-1.8c0.2-0.2,0.5-0.3,0.8-0.1l4,3c0.2,0.2,0.3,0.5,0.1,0.8l-1.1,1.5
		l0.4,0.5c1.7,2,2.7,4.6,2.7,7.5c0,6.5-5.3,11.8-11.8,11.8c-0.8,0-1.6-0.1-2.4-0.2L27,40.3l-1.7,2.4c-0.1,0.1-0.2,0.2-0.4,0.2
		C24.8,42.9,24.8,42.9,24.8,42.9z M24.7,41.6l2.3-3.1l-3.1-2.3l-2.3,3.1L24.7,41.6z M29.6,39.5c5.9,0,10.7-4.8,10.7-10.7
		c0-2.6-0.9-4.9-2.4-6.8l-0.2-0.2l-1.2,1.6c-0.1,0.1-0.2,0.2-0.4,0.2c-0.1,0-0.3,0-0.4-0.1l-4-2.9c-0.2-0.2-0.3-0.5-0.1-0.8l0.9-1.3
		l-0.7-0.2c-0.7-0.1-1.4-0.2-2.1-0.2c-2.4,0-4.6,0.8-6.4,2.1l-0.2,0.1l1.3,0.9c0.2,0.2,0.3,0.5,0.1,0.8l-3,4
		c-0.1,0.1-0.2,0.2-0.4,0.2c-0.1,0-0.3,0-0.4-0.1l-1.2-0.9l-0.1,0.3c-0.3,1-0.5,2.1-0.5,3.2c0,2.9,1.2,5.6,3.1,7.5l0.1,0.1l1.1-1.5
		c0.2-0.2,0.5-0.3,0.8-0.1l4,3c0.2,0.2,0.3,0.5,0.1,0.8l-0.5,0.7l0.8,0.1C28.9,39.5,29.2,39.5,29.6,39.5z M10.1,38
		c0.4,0,0.7-0.3,0.7-0.7c0-0.4-0.3-0.7-0.7-0.7c-0.4,0-0.7,0.3-0.7,0.7C9.4,37.7,9.8,38,10.1,38z M20.9,25l2.3-3.1l-3.1-2.3
		l-2.3,3.1L20.9,25z M35.9,22.3l2.3-3.1L35,16.9L32.7,20L35.9,22.3z M19.2,13.9l2.3-3.1l-3.1-2.3L16,11.6L19.2,13.9z M30,9.6
		c0.4,0,0.7-0.3,0.7-0.7c0-0.4-0.3-0.7-0.7-0.7c-0.4,0-0.7,0.3-0.7,0.7C29.3,9.3,29.6,9.6,30,9.6z"/>
</g>
<g>
	<path class="st0" d="M-67.6,37.1c-0.5,0-0.9,0-1.3-0.1c-1.7-0.3-3-1-4.2-2c-0.4-0.3-0.1-1,0.4-1c3.5,0.2,5.7,0,7.2-0.5
		c0.4-0.1,0.7-0.2,1-0.4l0.2-0.1l-0.4,0c-2.9,0.3-5.8,0.2-8.7-0.7c-0.3-0.1-0.5-0.4-0.4-0.7c0.1-0.3,0.4-0.5,0.7-0.4
		c3.7,1.1,7.2,1,11.1,0.2c0.6-0.1,0.9,0.6,0.4,1c-1,0.7-2,1.6-3.7,2.1c-1.3,0.4-2.9,0.6-5.1,0.6h-0.5l0.1,0.1c0.6,0.3,1.2,0.5,2,0.6
		c1.4,0.2,3.2,0,5.5-0.9c0.3-0.1,0.6,0,0.7,0.3c0.1,0.3,0,0.6-0.3,0.7C-64.6,36.8-66.2,37.1-67.6,37.1z"/>
	<path class="st0" d="M-67.8,41c-1.4,0-2.6-1-2.9-2.8c-0.1-0.4,0.3-0.7,0.6-0.6c1.6,0.3,3.1,0.3,4.7,0c0.4-0.1,0.7,0.3,0.6,0.7
		C-65.1,40-66.4,41-67.8,41z M-67.8,39.9c0.6,0,1.2-0.3,1.7-1l0-0.1l-0.3,0c-0.8,0.1-1.7,0.1-2.6,0l-0.4,0l0,0.1
		C-68.9,39.6-68.3,39.9-67.8,39.9z"/>
	<path class="st0" d="M-71,32.9c-0.1,0-0.3,0-0.4-0.1c-0.9-0.7-1.4-1.7-1.3-3.2c0.3-3.4-5.1-4.2-4.8-10.5c0.2-6.6,5.6-8.8,10-8.8
		c5.4,0,9.9,4.1,9.8,9.8c-0.1,5-5.2,6.8-4.8,9.6c0,0,0,0.1,0,0.1c0,1.2-0.4,2.4-1.8,3.1c-0.3,0.1-0.6,0-0.7-0.3
		c-0.1-0.3,0-0.6,0.3-0.7c0.9-0.4,1.2-1.1,1.2-2.1l0-0.5c0.1-3.1,4.8-4.9,4.8-9.1c0.1-5.1-3.9-8.7-8.7-8.7c-4.1,0-8.7,2-8.9,7.8
		c-0.2,5.9,5.2,6.4,4.8,10.6c-0.1,1.1,0.3,1.8,0.9,2.3c0.2,0.2,0.3,0.5,0.1,0.8C-70.7,32.8-70.8,32.9-71,32.9z"/>
	<path class="st0" d="M-69.8,19.8c-0.1,0-0.2,0-0.2-0.1l-2.3-1.6c-0.2-0.1-0.2-0.4-0.1-0.6c0.1-0.2,0.4-0.2,0.6-0.1l2,1.4l1.6-2.1
		c0.2-0.2,0.5-0.2,0.6,0l1.8,2L-64,17c0.2-0.2,0.4-0.1,0.6,0c0.2,0.2,0.1,0.4,0,0.6l-2.1,2c-0.2,0.2-0.4,0.1-0.6,0l-1.7-2l-1.5,2
		C-69.6,19.7-69.7,19.8-69.8,19.8z"/>
	<path class="st0" d="M-67.6,25.6c-0.1,0-0.2,0-0.3-0.1l-5.1-5.4c-0.2-0.2-0.2-0.4,0-0.6c0.2-0.2,0.4-0.2,0.6,0l4.8,5l4.6-5.5
		c0.1-0.2,0.4-0.2,0.6-0.1c0.2,0.1,0.2,0.4,0.1,0.6l-4.9,5.9C-67.4,25.6-67.5,25.6-67.6,25.6z"/>
	<path class="st0" d="M-68.6,32.6c-0.3,0-0.5-0.2-0.5-0.5v-7c0-0.3,0.2-0.5,0.5-0.5h1.9c0.3,0,0.5,0.2,0.5,0.5v7
		c0,0.3-0.2,0.5-0.5,0.5H-68.6z M-67.3,31.6v-5.9h-0.8v5.9H-67.3z"/>
	<path class="st0" d="M-56.1,16.8c-0.2,0-0.4-0.1-0.5-0.4c-0.1-0.3,0-0.6,0.3-0.7l4.6-1.7c0.3-0.1,0.6,0,0.7,0.3
		c0.1,0.3,0,0.6-0.3,0.7l-4.6,1.7C-55.9,16.8-56,16.8-56.1,16.8z"/>
	<path class="st0" d="M-60,10.4c-0.1,0-0.2,0-0.3-0.1c-0.2-0.2-0.3-0.5-0.1-0.8l2.5-3.5c0.2-0.2,0.5-0.3,0.8-0.1
		c0.2,0.2,0.3,0.5,0.1,0.8l-2.5,3.5C-59.7,10.3-59.8,10.4-60,10.4z"/>
	<path class="st0" d="M-67.7,8c-0.3,0-0.5-0.2-0.5-0.5l0-4.5c0-0.3,0.2-0.5,0.6-0.5c0.3,0,0.5,0.2,0.5,0.6l0,4.4
		C-67.2,7.8-67.4,8-67.7,8z"/>
	<path class="st0" d="M-79.2,16.1c-0.1,0-0.1,0-0.2,0l-4.6-1.7c-0.3-0.1-0.4-0.4-0.3-0.7c0.1-0.3,0.4-0.4,0.7-0.3L-79,15
		c0.3,0.1,0.4,0.4,0.3,0.7C-78.7,15.9-78.9,16.1-79.2,16.1z"/>
	<path class="st0" d="M-75,10.1c-0.2,0-0.3-0.1-0.5-0.2l-2.5-3.5c-0.2-0.2-0.1-0.6,0.1-0.8c0.2-0.2,0.6-0.1,0.8,0.1l2.5,3.5
		c0.2,0.2,0.1,0.6-0.1,0.8C-74.8,10.1-74.9,10.1-75,10.1z"/>
</g>
<g>
	<path class="st0" d="M-30.4,41.6c-2.3,0-4.1-1.8-4.1-4.1V12.5c0-2.3,1.8-4.1,4.1-4.1h6.2l-0.3-0.6c-0.2-0.5-0.3-1.1-0.3-1.6
		c0-2.4,1.9-4.3,4.3-4.3c2.4,0,4.3,1.9,4.3,4.3c0,0.6-0.1,1.2-0.3,1.7l-0.3,0.6h6.1c2.3,0,4.1,1.8,4.1,4.1v25.1
		c0,2.3-1.8,4.1-4.1,4.1H-30.4z M-10.7,40.6c1.7,0,3-1.3,3-3V12.5c0-1.6-1.3-3-3-3h-2.1V11h2.5c0.7,0,1.3,0.6,1.3,1.3v25.4
		c0,0.7-0.6,1.3-1.3,1.3h-20.3c-0.7,0-1.3-0.6-1.3-1.3V12.3c0-0.7,0.6-1.3,1.3-1.3h2.2V9.5h-2c-1.6,0-3,1.3-3,3v25.1
		c0,1.7,1.3,3,3,3H-10.7z M-10.3,38c0.1,0,0.2-0.1,0.2-0.2V12.3c0-0.1-0.1-0.3-0.2-0.3h-2.5l0,0.1c-0.1,0.2-0.3,0.3-0.5,0.3h-14.5
		c-0.2,0-0.4-0.1-0.5-0.3l0-0.1h-2.3c-0.1,0-0.2,0.1-0.2,0.3v25.4c0,0.1,0.1,0.2,0.2,0.2H-10.3z M-22.8,34.8c-0.3,0-0.5-0.2-0.5-0.5
		c0-0.3,0.2-0.5,0.5-0.5h9.6c0.3,0,0.5,0.2,0.5,0.5c0,0.3-0.2,0.5-0.5,0.5H-22.8z M-22.8,31.1c-0.3,0-0.5-0.2-0.5-0.5
		c0-0.3,0.2-0.5,0.5-0.5h9.6c0.3,0,0.5,0.2,0.5,0.5c0,0.3-0.2,0.5-0.5,0.5H-22.8z M-26.7,29c-0.1,0-0.3,0-0.4-0.1l-1.8-1.6
		c-0.2-0.2-0.2-0.5-0.1-0.8c0.2-0.2,0.5-0.2,0.8-0.1l1.4,1.2l1.7-2c0.2-0.2,0.5-0.3,0.8-0.1c0.2,0.2,0.3,0.5,0.1,0.8l-2.1,2.4
		C-26.5,28.9-26.6,29-26.7,29z M-22.8,27.4c-0.3,0-0.5-0.2-0.5-0.5c0-0.3,0.2-0.5,0.5-0.5h9.6c0.3,0,0.5,0.2,0.5,0.5
		c0,0.3-0.2,0.5-0.5,0.5H-22.8z M-26.7,25.2c-0.1,0-0.3,0-0.4-0.1l-1.8-1.6c-0.2-0.2-0.2-0.5-0.1-0.8c0.2-0.2,0.5-0.2,0.8-0.1
		l1.4,1.2l1.7-2c0.2-0.2,0.5-0.3,0.8-0.1c0.2,0.2,0.3,0.5,0.1,0.8l-2.1,2.4C-26.5,25.1-26.6,25.2-26.7,25.2z M-22.8,23.7
		c-0.3,0-0.5-0.2-0.5-0.5c0-0.3,0.2-0.5,0.5-0.5h9.6c0.3,0,0.5,0.2,0.5,0.5c0,0.3-0.2,0.5-0.5,0.5H-22.8z M-26.7,21.1
		c-0.1,0-0.3,0-0.4-0.1l-1.8-1.6c-0.2-0.2-0.2-0.5-0.1-0.8c0.2-0.2,0.5-0.3,0.8-0.1l1.4,1.2l1.7-2c0.2-0.2,0.5-0.3,0.8-0.1
		c0.2,0.2,0.3,0.5,0.1,0.8l-2.1,2.4C-26.5,21.1-26.6,21.1-26.7,21.1z M-22.8,20c-0.3,0-0.5-0.2-0.5-0.5c0-0.3,0.2-0.5,0.5-0.5h9.6
		c0.3,0,0.5,0.2,0.5,0.5c0,0.3-0.2,0.5-0.5,0.5H-22.8z M-26.7,17.6c-0.1,0-0.3,0-0.4-0.1l-1.8-1.6c-0.2-0.2-0.2-0.5-0.1-0.8
		c0.2-0.2,0.5-0.3,0.8-0.1l1.4,1.2l1.7-2c0.2-0.2,0.5-0.3,0.8-0.1c0.2,0.2,0.3,0.5,0.1,0.8l-2.1,2.4C-26.5,17.5-26.6,17.6-26.7,17.6
		z M-22.8,16.2c-0.3,0-0.5-0.2-0.5-0.5c0-0.3,0.2-0.5,0.5-0.5h9.6c0.3,0,0.5,0.2,0.5,0.5c0,0.3-0.2,0.5-0.5,0.5H-22.8z M-13.9,11.4
		V9.5h-13.4v1.9H-13.9z M-18.1,8.4l0.4-0.4c0.3-0.5,0.5-1.1,0.5-1.8c0-1.8-1.5-3.2-3.2-3.2c-1.8,0-3.2,1.5-3.2,3.2
		c0,0.9,0.3,1.6,0.9,2.2l0,0H-18.1z M-20.4,8c-1,0-1.8-0.8-1.8-1.8c0-1,0.8-1.8,1.8-1.8c1,0,1.8,0.8,1.8,1.8
		C-18.6,7.2-19.4,8-20.4,8z M-20.4,6.9c0.4,0,0.7-0.3,0.7-0.7c0-0.4-0.3-0.7-0.7-0.7c-0.4,0-0.7,0.3-0.7,0.7
		C-21.2,6.6-20.8,6.9-20.4,6.9z"/>
</g>
<g>
	<path class="st0" d="M69.1,41.1c-2.3,0-4.1-1.8-4.1-4.1v-1.3h-7.8c-1.2,0-2.2-1-2.2-2.2V13.7c0-1.2,1-2.2,2.2-2.2h8.1l0,0
		c0.6-1.5,2.1-2.5,3.8-2.5h13.7c1.7,0,3.1,1,3.8,2.5l0,0h8.3c1.2,0,2.2,1,2.2,2.2v19.8c0,1.2-1,2.2-2.2,2.2h-8V37
		c0,2.3-1.8,4.1-4.1,4.1H69.1z M82.8,40c1.7,0,3-1.3,3-3V13c0-1.6-1.3-3-3-3H69.1c-1.2,0-2.3,0.8-2.8,1.8l0,0l0,0.2
		c0,0.2-0.1,0.3-0.2,0.4l0,0L66.1,13v24c0,1.7,1.3,3,3,3H82.8z M75.8,39.2c-0.8,0-1.5-0.6-1.5-1.5c0-0.8,0.6-1.4,1.5-1.4
		c0.8,0,1.4,0.6,1.4,1.4C77.2,38.6,76.6,39.2,75.8,39.2z M75.8,38.4c0.3,0,0.6-0.3,0.6-0.6c0-0.3-0.3-0.6-0.6-0.6
		c-0.3,0-0.6,0.3-0.6,0.6C75.1,38.1,75.4,38.4,75.8,38.4z M69.3,35.7c-1.2,0-2.2-1-2.2-2.2V13.7c0-1.2,1-2.2,2.2-2.2h13.1
		c1.2,0,2.2,1,2.2,2.2v19.8c0,1.2-1,2.2-2.2,2.2H69.3z M65,34.6v-2.9h-7.3c-0.2,0-0.4-0.2-0.4-0.4c0-0.2,0.2-0.4,0.4-0.4H65v-1.3
		h-7.3c-0.2,0-0.4-0.2-0.4-0.4c0-0.2,0.2-0.4,0.4-0.4H65v-2.1h-7.2c-0.2,0-0.4-0.2-0.4-0.4v-4.6c0-0.2,0.2-0.4,0.4-0.4H65v-1.5h-7.2
		c-0.2,0-0.4-0.2-0.4-0.4v-4.6c0-0.2,0.2-0.4,0.4-0.4H65V13l0-0.5h-7.9c-0.6,0-1.1,0.5-1.1,1.1v19.8c0,0.6,0.5,1.1,1.1,1.1H65z
		 M82.4,34.6c0.6,0,1.1-0.5,1.1-1.1V13.7c0-0.6-0.5-1.1-1.1-1.1H69.3c-0.6,0-1.1,0.5-1.1,1.1v19.8c0,0.6,0.5,1.1,1.1,1.1H82.4z
		 M93.3,34.6V28h-6.4v6.5H93.3z M94.9,34.6c0.6,0,1.1-0.5,1.1-1.1V13.7c0-0.6-0.5-1.1-1.1-1.1h-8.1l0.1,0.5v1.5h6.8
		c0.2,0,0.4,0.2,0.4,0.4v4.6c0,0.2-0.2,0.4-0.4,0.4h-6.8v2h7c0.2,0,0.4,0.2,0.4,0.4c0,0.2-0.2,0.4-0.4,0.4h-7v1.3h7
		c0.2,0,0.4,0.2,0.4,0.4c0,0.2-0.2,0.4-0.4,0.4h-7v2.2h6.8c0.2,0,0.4,0.2,0.4,0.4v6.9H94.9z M72.4,32.7c-0.4,0-0.8-0.4-0.8-0.8V30
		c0-0.4,0.3-0.8,0.8-0.8h7.2c0.4,0,0.8,0.3,0.8,0.8v1.9c0,0.4-0.3,0.8-0.8,0.8H72.4z M79.6,31.8V30h-7.2v1.8H79.6z M71.8,26.7
		c-0.2,0-0.4-0.2-0.4-0.4c0-0.2,0.2-0.4,0.4-0.4h7.6c0.2,0,0.4,0.2,0.4,0.4c0,0.2-0.2,0.4-0.4,0.4H71.8z M65,25.8v-3.8h-6.8v3.8H65z
		 M71.8,24.5c-0.2,0-0.4-0.2-0.4-0.4c0-0.2,0.2-0.4,0.4-0.4h7.6c0.2,0,0.4,0.2,0.4,0.4c0,0.2-0.2,0.4-0.4,0.4H71.8z M75.7,22.3
		c-2.4,0-4.3-1.9-4.3-4.3c0-2.4,1.9-4.3,4.3-4.3c2.3,0,4.3,1.9,4.3,4.3C80,20.4,78.1,22.3,75.7,22.3z M75.7,21.5
		c0.6,0,1.2-0.2,1.6-0.4l0.2-0.1l-0.1-0.3c-0.3-0.4-0.7-0.8-1.3-1.1l0,0h0c-0.1,0-0.3,0-0.4,0c-0.1,0-0.3,0-0.4,0l-0.1,0L75,19.6
		c-0.5,0.3-0.8,0.6-1.1,1l-0.1,0.3C74.4,21.3,75,21.5,75.7,21.5z M78.3,20.4l0.1-0.1c0.5-0.6,0.8-1.4,0.8-2.2c0-1.9-1.5-3.4-3.4-3.4
		c-1.9,0-3.4,1.5-3.4,3.4c0,0.8,0.3,1.6,0.8,2.2l0.1,0.1l0.1-0.1c0.3-0.4,0.6-0.8,1-1.1l0.1,0L74.2,19c-0.4-0.4-0.6-0.9-0.6-1.5
		c0-1.1,0.9-2.1,2.1-2.1c1.1,0,2.1,0.9,2.1,2.1c0,0.6-0.3,1.2-0.8,1.6v0l0.2,0.1C77.6,19.6,78,19.9,78.3,20.4L78.3,20.4z M93.3,19.2
		v-3.8h-6.4v3.8H93.3z M75.7,18.8c0.7,0,1.2-0.6,1.2-1.2c0-0.7-0.6-1.2-1.2-1.2c-0.7,0-1.2,0.6-1.2,1.2C74.5,18.2,75,18.8,75.7,18.8
		z M65,18.8v-3.8h-6.8v3.8H65z"/>
</g>
</svg>
