<?xml version="1.0" encoding="utf-8"?>
<!-- Generator: Adobe Illustrator 19.1.0, SVG Export Plug-In . SVG Version: 6.00 Build 0)  -->
<svg version="1.1" id="Layer_1" xmlns="http://www.w3.org/2000/svg" xmlns:xlink="http://www.w3.org/1999/xlink" x="0px" y="0px"
	 viewBox="0 0 50 50" style="enable-background:new 0 0 50 50;" xml:space="preserve">
<style type="text/css">
	.st0{fill-rule:evenodd;clip-rule:evenodd;fill:#FFFFFF;}
</style>
<g>
	<path class="st0" d="M77.8,42.9c-0.1,0-0.2,0-0.3-0.1l-4-3c-0.2-0.2-0.3-0.5-0.1-0.8l1.2-1.7l-0.3-0.2c-2.1-2.1-3.4-5.1-3.4-8.3
		c0-0.3,0-0.7,0-1l0.1-0.7l-6.6,9.4l0.2,0.2c0.1,0.2,0.1,0.4,0.1,0.6c0,0.8-0.7,1.5-1.5,1.5c-0.8,0-1.5-0.7-1.5-1.5
		c0-0.8,0.7-1.5,1.5-1.5c0.1,0,0.2,0,0.3,0l0,0l7.9-11.3l-1.7-1.3c-0.2-0.2-0.3-0.5-0.1-0.8l3-4c0.2-0.2,0.5-0.3,0.8-0.1l1.3,0.9
		l0.5-0.9c0.9-2,0.4-3.7-0.8-4.8l-0.3-0.3l-1.1,1.5c-0.1,0.1-0.2,0.2-0.4,0.2c-0.1,0-0.3,0-0.4-0.1l-4-2.9c-0.2-0.2-0.3-0.5-0.1-0.8
		l3-4C71,7.1,71.3,7,71.6,7.2l4,3c0.2,0.2,0.3,0.5,0.1,0.8l-1.2,1.6l0.2,0.2c1.2,1,2,2.6,1.7,4.4l0,0.2l5.3-7.5l-0.2-0.3
		c-0.1-0.2-0.1-0.4-0.1-0.6c0-0.8,0.7-1.5,1.5-1.5c0.8,0,1.5,0.7,1.5,1.5c0,0.8-0.7,1.5-1.5,1.5l-0.3,0l-5.8,8.2l0.2-0.1
		c1.6-0.9,3.5-1.4,5.5-1.4c1.2,0,2.4,0.2,3.5,0.5l0,0l1.3-1.8c0.2-0.2,0.5-0.3,0.8-0.1l4,3c0.2,0.2,0.3,0.5,0.1,0.8l-1.1,1.5
		l0.4,0.5c1.7,2,2.7,4.6,2.7,7.5c0,6.5-5.3,11.8-11.8,11.8c-0.8,0-1.6-0.1-2.4-0.2L80,40.3l-1.7,2.4c-0.1,0.1-0.2,0.2-0.4,0.2
		C77.8,42.9,77.8,42.9,77.8,42.9z M77.7,41.6l2.3-3.1l-3.1-2.3l-2.3,3.1L77.7,41.6z M82.6,39.5c5.9,0,10.7-4.8,10.7-10.7
		c0-2.6-0.9-4.9-2.4-6.8l-0.2-0.2l-1.2,1.6c-0.1,0.1-0.2,0.2-0.4,0.2c-0.1,0-0.3,0-0.4-0.1l-4-2.9c-0.2-0.2-0.3-0.5-0.1-0.8l0.9-1.3
		l-0.7-0.2c-0.7-0.1-1.4-0.2-2.1-0.2c-2.4,0-4.6,0.8-6.4,2.1l-0.2,0.1l1.3,0.9c0.2,0.2,0.3,0.5,0.1,0.8l-3,4
		c-0.1,0.1-0.2,0.2-0.4,0.2c-0.1,0-0.3,0-0.4-0.1l-1.2-0.9l-0.1,0.3c-0.3,1-0.5,2.1-0.5,3.2c0,2.9,1.2,5.6,3.1,7.5l0.1,0.1l1.1-1.5
		c0.2-0.2,0.5-0.3,0.8-0.1l4,3c0.2,0.2,0.3,0.5,0.1,0.8l-0.5,0.7l0.8,0.1C81.9,39.5,82.2,39.5,82.6,39.5z M63.1,38
		c0.4,0,0.7-0.3,0.7-0.7c0-0.4-0.3-0.7-0.7-0.7c-0.4,0-0.7,0.3-0.7,0.7C62.4,37.7,62.8,38,63.1,38z M73.9,25l2.3-3.1l-3.1-2.3
		l-2.3,3.1L73.9,25z M88.9,22.3l2.3-3.1L88,16.9L85.7,20L88.9,22.3z M72.2,13.9l2.3-3.1l-3.1-2.3L69,11.6L72.2,13.9z M83,9.6
		c0.4,0,0.7-0.3,0.7-0.7c0-0.4-0.3-0.7-0.7-0.7c-0.4,0-0.7,0.3-0.7,0.7C82.3,9.3,82.6,9.6,83,9.6z"/>
</g>
<g>
	<path class="st0" d="M-20.9,40.4c-0.5,0-0.9,0-1.3-0.1c-1.7-0.3-3-1-4.2-2c-0.4-0.3-0.1-1,0.4-1c3.5,0.2,5.7,0,7.2-0.5
		c0.4-0.1,0.7-0.2,1-0.4l0.2-0.1l-0.4,0c-2.9,0.3-5.8,0.2-8.7-0.7c-0.3-0.1-0.5-0.4-0.4-0.7c0.1-0.3,0.4-0.5,0.7-0.4
		c3.7,1.1,7.2,1,11.1,0.2c0.6-0.1,0.9,0.6,0.4,1c-1,0.7-2,1.6-3.7,2.1c-1.3,0.4-2.9,0.6-5.1,0.6h-0.5l0.1,0.1c0.6,0.3,1.2,0.5,2,0.6
		c1.4,0.2,3.2,0,5.5-0.9c0.3-0.1,0.6,0,0.7,0.3c0.1,0.3,0,0.6-0.3,0.7C-18,40-19.6,40.4-20.9,40.4z"/>
	<path class="st0" d="M-21.1,44.2c-1.4,0-2.6-1-2.9-2.8c-0.1-0.4,0.3-0.7,0.6-0.6c1.6,0.3,3.1,0.3,4.7,0c0.4-0.1,0.7,0.3,0.6,0.7
		C-18.5,43.3-19.8,44.2-21.1,44.2z M-21.1,43.1c0.6,0,1.2-0.3,1.7-1l0-0.1l-0.3,0c-0.8,0.1-1.7,0.1-2.6,0l-0.4,0l0,0.1
		C-22.3,42.8-21.7,43.1-21.1,43.1z"/>
	<path class="st0" d="M-24.3,36.2c-0.1,0-0.3,0-0.4-0.1c-0.9-0.7-1.4-1.7-1.3-3.2c0.3-3.4-5.1-4.2-4.8-10.5c0.2-6.6,5.6-8.8,10-8.8
		c5.4,0,9.9,4.1,9.8,9.8c-0.1,5-5.2,6.8-4.8,9.6c0,0,0,0.1,0,0.1c0,1.2-0.4,2.4-1.8,3.1c-0.3,0.1-0.6,0-0.7-0.3
		c-0.1-0.3,0-0.6,0.3-0.7c0.9-0.4,1.2-1.1,1.2-2.1l0-0.5c0.1-3.1,4.8-4.9,4.8-9.1c0.1-5.1-3.9-8.7-8.7-8.7c-4.1,0-8.7,2-8.9,7.8
		c-0.2,5.9,5.2,6.4,4.8,10.6c-0.1,1.1,0.3,1.8,0.9,2.3c0.2,0.2,0.3,0.5,0.1,0.8C-24.1,36.1-24.2,36.2-24.3,36.2z"/>
	<path class="st0" d="M-23.2,23c-0.1,0-0.2,0-0.2-0.1l-2.3-1.6c-0.2-0.1-0.2-0.4-0.1-0.6c0.1-0.2,0.4-0.2,0.6-0.1l2,1.4l1.6-2.1
		c0.2-0.2,0.5-0.2,0.6,0l1.8,2l1.8-1.7c0.2-0.2,0.4-0.1,0.6,0c0.2,0.2,0.1,0.4,0,0.6l-2.1,2c-0.2,0.2-0.4,0.1-0.6,0l-1.7-2l-1.5,2
		C-23,23-23.1,23-23.2,23z"/>
	<path class="st0" d="M-21,28.9c-0.1,0-0.2,0-0.3-0.1l-5.1-5.4c-0.2-0.2-0.2-0.4,0-0.6c0.2-0.2,0.4-0.2,0.6,0l4.8,5l4.6-5.5
		c0.1-0.2,0.4-0.2,0.6-0.1c0.2,0.1,0.2,0.4,0.1,0.6l-4.9,5.9C-20.8,28.8-20.9,28.9-21,28.9z"/>
	<path class="st0" d="M-22,35.9c-0.3,0-0.5-0.2-0.5-0.5v-7c0-0.3,0.2-0.5,0.5-0.5h1.9c0.3,0,0.5,0.2,0.5,0.5v7
		c0,0.3-0.2,0.5-0.5,0.5H-22z M-20.7,34.8v-5.9h-0.8v5.9H-20.7z"/>
	<path class="st0" d="M-9.5,20c-0.2,0-0.4-0.1-0.5-0.4c-0.1-0.3,0-0.6,0.3-0.7l4.6-1.7c0.3-0.1,0.6,0,0.7,0.3c0.1,0.3,0,0.6-0.3,0.7
		L-9.2,20C-9.3,20-9.4,20-9.5,20z"/>
	<path class="st0" d="M-13.4,13.7c-0.1,0-0.2,0-0.3-0.1c-0.2-0.2-0.3-0.5-0.1-0.8l2.5-3.5c0.2-0.2,0.5-0.3,0.8-0.1
		c0.2,0.2,0.3,0.5,0.1,0.8l-2.5,3.5C-13.1,13.6-13.2,13.7-13.4,13.7z"/>
	<path class="st0" d="M-21.1,11.3c-0.3,0-0.5-0.2-0.5-0.5l0-4.5c0-0.3,0.2-0.5,0.6-0.5c0.3,0,0.5,0.2,0.5,0.6l0,4.4
		C-20.6,11.1-20.8,11.3-21.1,11.3z"/>
	<path class="st0" d="M-32.5,19.3c-0.1,0-0.1,0-0.2,0l-4.6-1.7c-0.3-0.1-0.4-0.4-0.3-0.7c0.1-0.3,0.4-0.4,0.7-0.3l4.6,1.7
		c0.3,0.1,0.4,0.4,0.3,0.7C-32.1,19.2-32.3,19.3-32.5,19.3z"/>
	<path class="st0" d="M-28.4,13.4c-0.2,0-0.3-0.1-0.5-0.2l-2.5-3.5c-0.2-0.2-0.1-0.6,0.1-0.8c0.2-0.2,0.6-0.1,0.8,0.1l2.5,3.5
		c0.2,0.2,0.1,0.6-0.1,0.8C-28.1,13.4-28.3,13.4-28.4,13.4z"/>
</g>
<g>
	<path class="st0" d="M15.1,44.9c-2.3,0-4.1-1.8-4.1-4.1V15.8c0-2.3,1.8-4.1,4.1-4.1h6.2L21,11.1c-0.2-0.5-0.3-1.1-0.3-1.6
		c0-2.4,1.9-4.3,4.3-4.3c2.4,0,4.3,1.9,4.3,4.3c0,0.6-0.1,1.2-0.3,1.7l-0.3,0.6h6.1c2.3,0,4.1,1.8,4.1,4.1v25.1
		c0,2.3-1.8,4.1-4.1,4.1H15.1z M34.9,43.8c1.7,0,3-1.3,3-3V15.8c0-1.6-1.3-3-3-3h-2.1v1.5h2.5c0.7,0,1.3,0.6,1.3,1.3V41
		c0,0.7-0.6,1.3-1.3,1.3H14.9c-0.7,0-1.3-0.6-1.3-1.3V15.6c0-0.7,0.6-1.3,1.3-1.3h2.2v-1.5h-2c-1.6,0-3,1.3-3,3v25.1
		c0,1.7,1.3,3,3,3H34.9z M35.2,41.2c0.1,0,0.2-0.1,0.2-0.2V15.6c0-0.1-0.1-0.3-0.2-0.3h-2.5l0,0.1c-0.1,0.2-0.3,0.3-0.5,0.3H17.7
		c-0.2,0-0.4-0.1-0.5-0.3l0-0.1h-2.3c-0.1,0-0.2,0.1-0.2,0.3V41c0,0.1,0.1,0.2,0.2,0.2H35.2z M22.7,38c-0.3,0-0.5-0.2-0.5-0.5
		c0-0.3,0.2-0.5,0.5-0.5h9.6c0.3,0,0.5,0.2,0.5,0.5c0,0.3-0.2,0.5-0.5,0.5H22.7z M22.7,34.3c-0.3,0-0.5-0.2-0.5-0.5
		c0-0.3,0.2-0.5,0.5-0.5h9.6c0.3,0,0.5,0.2,0.5,0.5c0,0.3-0.2,0.5-0.5,0.5H22.7z M18.8,32.2c-0.1,0-0.3,0-0.4-0.1l-1.8-1.6
		c-0.2-0.2-0.2-0.5-0.1-0.8c0.2-0.2,0.5-0.2,0.8-0.1l1.4,1.2l1.7-2c0.2-0.2,0.5-0.3,0.8-0.1c0.2,0.2,0.3,0.5,0.1,0.8L19.1,32
		C19,32.2,18.9,32.2,18.8,32.2z M22.7,30.6c-0.3,0-0.5-0.2-0.5-0.5c0-0.3,0.2-0.5,0.5-0.5h9.6c0.3,0,0.5,0.2,0.5,0.5
		c0,0.3-0.2,0.5-0.5,0.5H22.7z M18.8,28.4c-0.1,0-0.3,0-0.4-0.1l-1.8-1.6c-0.2-0.2-0.2-0.5-0.1-0.8c0.2-0.2,0.5-0.2,0.8-0.1l1.4,1.2
		l1.7-2c0.2-0.2,0.5-0.3,0.8-0.1c0.2,0.2,0.3,0.5,0.1,0.8l-2.1,2.4C19,28.3,18.9,28.4,18.8,28.4z M22.7,26.9c-0.3,0-0.5-0.2-0.5-0.5
		c0-0.3,0.2-0.5,0.5-0.5h9.6c0.3,0,0.5,0.2,0.5,0.5c0,0.3-0.2,0.5-0.5,0.5H22.7z M18.8,24.4c-0.1,0-0.3,0-0.4-0.1l-1.8-1.6
		c-0.2-0.2-0.2-0.5-0.1-0.8c0.2-0.2,0.5-0.3,0.8-0.1l1.4,1.2l1.7-2c0.2-0.2,0.5-0.3,0.8-0.1c0.2,0.2,0.3,0.5,0.1,0.8l-2.1,2.4
		C19,24.3,18.9,24.4,18.8,24.4z M22.7,23.2c-0.3,0-0.5-0.2-0.5-0.5c0-0.3,0.2-0.5,0.5-0.5h9.6c0.3,0,0.5,0.2,0.5,0.5
		c0,0.3-0.2,0.5-0.5,0.5H22.7z M18.8,20.9c-0.1,0-0.3,0-0.4-0.1l-1.8-1.6c-0.2-0.2-0.2-0.5-0.1-0.8c0.2-0.2,0.5-0.3,0.8-0.1l1.4,1.2
		l1.7-2c0.2-0.2,0.5-0.3,0.8-0.1c0.2,0.2,0.3,0.5,0.1,0.8l-2.1,2.4C19,20.8,18.9,20.8,18.8,20.9z M22.7,19.5c-0.3,0-0.5-0.2-0.5-0.5
		c0-0.3,0.2-0.5,0.5-0.5h9.6c0.3,0,0.5,0.2,0.5,0.5c0,0.3-0.2,0.5-0.5,0.5H22.7z M31.6,14.7v-1.9H18.2v1.9H31.6z M27.4,11.7l0.4-0.4
		c0.3-0.5,0.5-1.1,0.5-1.8c0-1.8-1.5-3.2-3.2-3.2c-1.8,0-3.2,1.5-3.2,3.2c0,0.9,0.3,1.6,0.9,2.2l0,0H27.4z M25.1,11.3
		c-1,0-1.8-0.8-1.8-1.8c0-1,0.8-1.8,1.8-1.8c1,0,1.8,0.8,1.8,1.8C26.9,10.4,26.1,11.3,25.1,11.3z M25.1,10.2c0.4,0,0.7-0.3,0.7-0.7
		c0-0.4-0.3-0.7-0.7-0.7c-0.4,0-0.7,0.3-0.7,0.7C24.3,9.8,24.7,10.2,25.1,10.2z"/>
</g>
<g>
	<path class="st0" d="M122.1,41.1c-2.3,0-4.1-1.8-4.1-4.1v-1.3h-7.8c-1.2,0-2.2-1-2.2-2.2V13.7c0-1.2,1-2.2,2.2-2.2h8.1l0,0
		c0.6-1.5,2.1-2.5,3.8-2.5h13.7c1.7,0,3.1,1,3.8,2.5l0,0h8.3c1.2,0,2.2,1,2.2,2.2v19.8c0,1.2-1,2.2-2.2,2.2h-8V37
		c0,2.3-1.8,4.1-4.1,4.1H122.1z M135.8,40c1.7,0,3-1.3,3-3V13c0-1.6-1.3-3-3-3h-13.7c-1.2,0-2.3,0.8-2.8,1.8l0,0l0,0.2
		c0,0.2-0.1,0.3-0.2,0.4l0,0l-0.1,0.6v24c0,1.7,1.3,3,3,3H135.8z M128.8,39.2c-0.8,0-1.5-0.6-1.5-1.5c0-0.8,0.6-1.4,1.5-1.4
		c0.8,0,1.4,0.6,1.4,1.4C130.2,38.6,129.6,39.2,128.8,39.2z M128.8,38.4c0.3,0,0.6-0.3,0.6-0.6c0-0.3-0.3-0.6-0.6-0.6
		c-0.3,0-0.6,0.3-0.6,0.6C128.1,38.1,128.4,38.4,128.8,38.4z M122.3,35.7c-1.2,0-2.2-1-2.2-2.2V13.7c0-1.2,1-2.2,2.2-2.2h13.1
		c1.2,0,2.2,1,2.2,2.2v19.8c0,1.2-1,2.2-2.2,2.2H122.3z M118,34.6v-2.9h-7.3c-0.2,0-0.4-0.2-0.4-0.4c0-0.2,0.2-0.4,0.4-0.4h7.3v-1.3
		h-7.3c-0.2,0-0.4-0.2-0.4-0.4c0-0.2,0.2-0.4,0.4-0.4h7.3v-2.1h-7.2c-0.2,0-0.4-0.2-0.4-0.4v-4.6c0-0.2,0.2-0.4,0.4-0.4h7.2v-1.5
		h-7.2c-0.2,0-0.4-0.2-0.4-0.4v-4.6c0-0.2,0.2-0.4,0.4-0.4h7.2V13l0-0.5h-7.9c-0.6,0-1.1,0.5-1.1,1.1v19.8c0,0.6,0.5,1.1,1.1,1.1
		H118z M135.4,34.6c0.6,0,1.1-0.5,1.1-1.1V13.7c0-0.6-0.5-1.1-1.1-1.1h-13.1c-0.6,0-1.1,0.5-1.1,1.1v19.8c0,0.6,0.5,1.1,1.1,1.1
		H135.4z M146.3,34.6V28h-6.4v6.5H146.3z M147.9,34.6c0.6,0,1.1-0.5,1.1-1.1V13.7c0-0.6-0.5-1.1-1.1-1.1h-8.1l0.1,0.5v1.5h6.8
		c0.2,0,0.4,0.2,0.4,0.4v4.6c0,0.2-0.2,0.4-0.4,0.4h-6.8v2h7c0.2,0,0.4,0.2,0.4,0.4c0,0.2-0.2,0.4-0.4,0.4h-7v1.3h7
		c0.2,0,0.4,0.2,0.4,0.4c0,0.2-0.2,0.4-0.4,0.4h-7v2.2h6.8c0.2,0,0.4,0.2,0.4,0.4v6.9H147.9z M125.4,32.7c-0.4,0-0.8-0.4-0.8-0.8V30
		c0-0.4,0.3-0.8,0.8-0.8h7.2c0.4,0,0.8,0.3,0.8,0.8v1.9c0,0.4-0.3,0.8-0.8,0.8H125.4z M132.6,31.8V30h-7.2v1.8H132.6z M124.8,26.7
		c-0.2,0-0.4-0.2-0.4-0.4c0-0.2,0.2-0.4,0.4-0.4h7.6c0.2,0,0.4,0.2,0.4,0.4c0,0.2-0.2,0.4-0.4,0.4H124.8z M118,25.8v-3.8h-6.8v3.8
		H118z M124.8,24.5c-0.2,0-0.4-0.2-0.4-0.4c0-0.2,0.2-0.4,0.4-0.4h7.6c0.2,0,0.4,0.2,0.4,0.4c0,0.2-0.2,0.4-0.4,0.4H124.8z
		 M128.7,22.3c-2.4,0-4.3-1.9-4.3-4.3c0-2.4,1.9-4.3,4.3-4.3c2.3,0,4.3,1.9,4.3,4.3C133,20.4,131.1,22.3,128.7,22.3z M128.7,21.5
		c0.6,0,1.2-0.2,1.6-0.4l0.2-0.1l-0.1-0.3c-0.3-0.4-0.7-0.8-1.3-1.1l0,0h0c-0.1,0-0.3,0-0.4,0s-0.3,0-0.4,0l-0.1,0l-0.2,0.1
		c-0.5,0.3-0.8,0.6-1.1,1l-0.1,0.3C127.4,21.3,128,21.5,128.7,21.5z M131.3,20.4l0.1-0.1c0.5-0.6,0.8-1.4,0.8-2.2
		c0-1.9-1.5-3.4-3.4-3.4c-1.9,0-3.4,1.5-3.4,3.4c0,0.8,0.3,1.6,0.8,2.2l0.1,0.1l0.1-0.1c0.3-0.4,0.6-0.8,1-1.1l0.1,0l-0.1-0.1
		c-0.4-0.4-0.6-0.9-0.6-1.5c0-1.1,0.9-2.1,2.1-2.1c1.1,0,2.1,0.9,2.1,2.1c0,0.6-0.3,1.2-0.8,1.6v0l0.2,0.1
		C130.6,19.6,131,19.9,131.3,20.4L131.3,20.4z M146.3,19.2v-3.8h-6.4v3.8H146.3z M128.7,18.8c0.7,0,1.2-0.6,1.2-1.2
		c0-0.7-0.6-1.2-1.2-1.2c-0.7,0-1.2,0.6-1.2,1.2C127.5,18.2,128,18.8,128.7,18.8z M118,18.8v-3.8h-6.8v3.8H118z"/>
</g>
</svg>
