<?xml version="1.0" standalone="no"?>
<!DOCTYPE svg PUBLIC "-//W3C//DTD SVG 20010904//EN"
 "http://www.w3.org/TR/2001/REC-SVG-20010904/DTD/svg10.dtd">
<svg version="1.0" xmlns="http://www.w3.org/2000/svg"
 width="16.000000pt" height="16.000000pt" viewBox="0 0 16.000000 16.000000"
 preserveAspectRatio="xMidYMid meet">
<metadata>
Created by potrace 1.11, written by Peter Selinger 2001-2013
</metadata>
<g transform="translate(0.000000,16.000000) scale(0.003125,-0.003125)"
fill="#000000" stroke="none">
<path d="M1570 4291 c-481 -102 -802 -551 -746 -1041 8 -77 48 -213 84 -290
31 -67 110 -184 156 -232 14 -15 26 -30 26 -33 0 -3 -219 -5 -488 -5 -453 0
-490 -1 -521 -18 -65 -35 -88 -115 -53 -182 26 -46 72 -67 167 -74 285 -20
527 -224 600 -506 8 -31 17 -99 20 -151 10 -190 31 -286 91 -414 129 -276 402
-484 699 -534 71 -12 1891 -9 1945 3 391 87 683 388 750 773 27 155 5 367 -54
509 -25 60 -89 177 -110 201 -6 6 -21 24 -33 40 -12 15 -31 39 -43 53 l-22 25
499 5 c554 6 533 3 567 75 28 58 18 112 -28 158 -27 27 -50 33 -149 42 -340
30 -593 299 -613 655 -7 129 -13 180 -30 248 -56 221 -203 427 -399 557 -45
30 -85 55 -88 55 -4 0 -30 11 -59 24 -48 22 -111 42 -193 63 -16 4 -448 8
-960 9 -863 3 -936 1 -1015 -15z m365 -276 c278 -80 474 -322 491 -602 14
-255 47 -380 140 -535 159 -261 435 -433 730 -453 224 -15 256 -22 372 -78
180 -86 324 -272 363 -469 19 -97 13 -225 -17 -327 -14 -51 -70 -169 -85 -181
-3 -3 -10 -13 -16 -23 -18 -34 -116 -127 -172 -164 -55 -37 -176 -89 -235
-101 -17 -3 -269 -7 -561 -9 l-530 -4 36 38 c85 91 155 209 198 338 161 483
-90 1011 -561 1184 -114 42 -176 53 -379 65 -279 18 -528 226 -600 503 -22 86
-27 215 -10 298 41 208 194 400 389 487 125 57 318 71 447 33z m1575 9 c206
-42 396 -200 479 -398 39 -94 48 -141 56 -292 4 -65 9 -122 11 -125 2 -4 6
-24 10 -45 16 -102 121 -321 193 -400 14 -17 35 -40 45 -52 l19 -22 -519 1
c-471 0 -526 2 -590 19 -234 61 -420 240 -488 470 -16 53 -19 83 -31 250 -6
94 -10 118 -36 205 -39 131 -115 267 -200 360 l-42 45 509 0 c414 -1 522 -4
584 -16z m-1549 -1636 c336 -118 520 -437 454 -788 -10 -53 -45 -138 -80 -199
-183 -311 -585 -419 -905 -244 -89 49 -215 177 -262 268 -58 113 -74 177 -82
337 -13 247 -82 426 -235 606 l-44 53 539 -3 539 -4 76 -26z"/>
</g>
</svg>
